<svg version="1.1" id="Layer_1" xmlns="http://www.w3.org/2000/svg" x="0" y="0" viewBox="0 0 360 360" xml:space="preserve"><style>.st3{fill:#05051e}.st5{fill:#ffb8b8}.st6{fill:#2f2e41}.st8{fill:#007eff}</style><g id="_x2A_-Elements-_x2F_-Empty-state-_x2F_-Time"><g id="undraw_season_change_f99v" transform="translate(1 58)"><ellipse id="Oval" cx="34.6" cy="21.5" rx="21.6" ry="21.5" fill="#a32dc1"/><ellipse id="Oval_1_" cx="189" cy="234" rx="171" ry="10" fill="#e6e6e6"/><ellipse id="Oval_2_" cx="53.1" cy="73" rx="53.1" ry="53" fill="#00cacf"/><path id="Path" class="st3" d="M59.2 233H48.1l5.1-167z"/><path id="Path_1_" class="st3" d="M53.7 95l12.5-16-12.7 20-1.4-2.2z"/><path id="Path_2_" class="st3" d="M52.6 116l-12.5-16 12.7 20 1.4-2.2z"/><ellipse id="Oval_3_" class="st3" cx="217.1" cy="133.5" rx="99.8" ry="99.5"/><ellipse id="Oval_4_" cx="216.1" cy="135.5" rx="91.8" ry="90.5" fill="#fff"/><circle id="Oval_5_" class="st3" cx="216.1" cy="134.5" r="12.5"/><path id="Rectangle" class="st3" d="M214.6 48h5v11h-5z"/><path id="Rectangle_1_" class="st3" d="M214.6 213h5v11h-5z"/><path id="Rectangle_2_" class="st3" d="M141.4 132v5h-11v-5z"/><path id="Path_3_" class="st3" d="M212.6 141.5l4.5-10.5 56.7 32z"/><path id="Rectangle_3_" class="st3" d="M203.6 14h27.1v29h-27.1z"/><ellipse id="Oval_6_" class="st3" cx="217.1" cy="12" rx="29.6" ry="8"/><path id="Path_4_" class="st5" d="M273.8 154.4l-1.9 2.4s-8.7 9.4-9.1 4.9c-.4-4.5 6.5-7.7 6.5-7.7l3.8-2.1.7 2.5z"/><path id="Path_5_" class="st5" d="M320.8 158.5l1.1 2.9s3.9 12.3.6 10.5c-3.3-1.8-3.4-9.4-3.4-9.4l-.3-4.4 2 .4z"/><circle id="Oval_7_" class="st6" cx="313.9" cy="105" r="10"/><path id="Path_6_" class="st5" d="M311.9 188.5l1.3 8.1v2.5h7.7V196s.3-5.6-1-7.1c-1.4-1.7-8-.4-8-.4z"/><path id="Path_7_" class="st5" d="M300.8 188.5l1.3 8.1v2.5h7.7V196s.3-5.6-1-7.1c-1.3-1.7-8-.4-8-.4z"/><path id="Path_8_" d="M302.4 120s-2.8 1.5-.9 5.1c1.9 3.5 13 39.9 13 39.9l6.4-1.9-5.6-23-3.2-14.5-9.7-5.6z" fill="#53cbc7"/><circle id="Oval_8_" class="st5" cx="310.9" cy="110" r="8"/><path id="Path_9_" class="st5" d="M314.9 111l-1.1 16-7.9-5.1s2.6-9.5 1.9-10.2l7.1-.7z"/><path id="Path_10_" class="st8" d="M315.4 125.8l-6.8-5.3s-3.1-1.3-4 .2c-.9 1.6-5.4 25-3 29.5 0 0 13 2.9 15.7 1.3l1.2-8.2s1.5-5.1-.9-8.2l-2.2-9.3z"/><path id="Path_11_" class="st8" d="M305.8 120.6s-2.6-1.9-4.8 1.3c-2.3 3.2-29.3 28.9-29.3 28.9l4.5 5.2 17.7-14.9 11.3-9.1.6-11.4z"/><path id="Path_12_" class="st3" d="M320 150.7s-16.8-3.1-18.5-.8l-.3 3.6s-3.7 6.9-1.7 18.1c2 11.2.7 18.1.7 18.1s9.2-1 16 0c6.8 1 7.8 0 7.8 0l-4-39z"/><path id="Path_13_" class="st6" d="M321.4 199l-8.5.3 2.9 25.6s-2.4 10.9.3 11.6c1.8.4 3.7.7 5.6.7 0 0 2.6 3.1 5.6 2.7 2-.3 3.8-1 5.6-2 0 0 .6-2-1.5-2.7-2.1-.7-7.6-2.7-8.8-9.9l-1.2-26.3z"/><path id="Path_14_" class="st6" d="M310.4 199l-8.5.3 2.9 25.6s-2.4 10.9.3 11.6c1.8.4 3.7.7 5.6.7 0 0 2.6 3.1 5.6 2.7 2-.3 3.8-1 5.6-2 0 0 .6-2-1.5-2.7-2.1-.7-7.6-2.7-8.8-9.9l-1.2-26.3z"/><circle id="Oval_9_" class="st6" cx="314.4" cy="97.5" r="4.5"/><path id="Path_15_" class="st6" d="M320.9 94.5c0-2.3-1.8-4.2-4.1-4.5h.5c2.5 0 4.5 2 4.5 4.5s-2 4.5-4.5 4.5h-.5c2.4-.3 4.1-2.2 4.1-4.5z"/><ellipse id="Oval_10_" class="st6" cx="312.9" cy="103.5" rx="7" ry="4.5"/></g></g></svg>