<svg width="20" height="20" xmlns="http://www.w3.org/2000/svg"><path d="M15.025 8.105v.31a6.815 6.815 0 0 1-6.855 6.86 6.715 6.715 0 0 1-3.67-1.09 4.845 4.845 0 0 0 3.575-.995 2.405 2.405 0 0 1-2.27-1.69c.15.03.302.045.455.045.213.013.426-.002.635-.045A2.415 2.415 0 0 1 4.96 9.135v-.03c.334.186.708.29 1.09.3A2.41 2.41 0 0 1 5.3 6.19a6.84 6.84 0 0 0 4.97 2.5 2.21 2.21 0 0 1-.065-.55 2.41 2.41 0 0 1 4.17-1.64 4.88 4.88 0 0 0 1.53-.585 2.41 2.41 0 0 1-1.06 1.335 4.895 4.895 0 0 0 1.385-.38 4.94 4.94 0 0 1-1.205 1.25M10 0C4.477 0 0 4.477 0 10s4.477 10 10 10 10-4.477 10-10A10 10 0 0 0 10 0" fill="#666" fill-rule="nonzero"/></svg>