<svg width="20" height="20" xmlns="http://www.w3.org/2000/svg"><path d="M9.997 0C4.477 0 0 4.59 0 10.248c-.038 4.358 2.706 8.261 6.837 9.724.507.095.684-.222.684-.504v-1.741c-2.78.619-3.368-1.374-3.368-1.374a2.684 2.684 0 0 0-1.109-1.51c-.906-.634.071-.624.071-.624.643.1 1.204.49 1.52 1.057.89 1.565 2.339 1.112 2.911.85.045-.515.27-.999.633-1.369-2.218-.256-4.558-1.137-4.558-5.063A4.012 4.012 0 0 1 4.634 6.94a3.773 3.773 0 0 1 .096-2.708s.841-.257 2.766 1.067a9.333 9.333 0 0 1 5.008 0c1.91-1.324 2.745-1.047 2.745-1.047.37.86.406 1.824.101 2.708a4.012 4.012 0 0 1 1.013 2.753c0 3.936-2.34 4.802-4.558 5.058.487.509.733 1.198.679 1.898v2.808c0 .338.182.594.689.504 4.13-1.468 6.87-5.375 6.826-9.734C20 4.59 15.523 0 9.997 0" fill="#FFF" fill-rule="nonzero"/></svg>