<?xml version="1.0" encoding="UTF-8"?>
<svg width="21px" height="21px" viewBox="0 0 21 21" version="1.1" xmlns="http://www.w3.org/2000/svg" xmlns:xlink="http://www.w3.org/1999/xlink">
    <title>j</title>
    <g id="Josiah" stroke="none" stroke-width="1" fill="none" fill-rule="evenodd">
        <g id="Homepage---V1" transform="translate(-39.000000, -40.000000)" fill="#FFFFFF" fill-rule="nonzero">
            <g id="j." transform="translate(39.836000, 40.454000)">
                <path d="M0.397790055,5.15991471 L7.42541436,5.15991471 L7.42541436,17.8251599 C7.42541436,18.5643213 7.21915285,19.1115849 6.80662983,19.466951 C6.39410681,19.822317 5.85635359,20 5.19337017,20 L0,20 L0,17.4413646 L3.97790055,17.4413646 C4.4198895,17.4413646 4.64088398,17.206823 4.64088398,16.7377399 L4.64088398,7.71855011 L0.397790055,7.71855011 L0.397790055,5.15991471 Z M8.08839779,2.02558635 C8.08839779,2.30987918 8.03314917,2.5764037 7.92265193,2.82515991 C7.8121547,3.07391613 7.6611418,3.28713575 7.46961326,3.46481876 C7.27808471,3.64250178 7.053407,3.78464819 6.79558011,3.891258 C6.53775322,3.9978678 6.26887661,4.05117271 5.98895028,4.05117271 C5.69429098,4.05117271 5.42173112,3.9978678 5.17127072,3.891258 C4.92081031,3.78464819 4.69981584,3.64250178 4.50828729,3.46481876 C4.31675875,3.28713575 4.16574586,3.07391613 4.05524862,2.82515991 C3.94475138,2.5764037 3.88950276,2.30987918 3.88950276,2.02558635 C3.88950276,1.74129353 3.94475138,1.47476901 4.05524862,1.22601279 C4.16574586,0.977256574 4.31675875,0.764036958 4.50828729,0.586353945 C4.69981584,0.408670931 4.92081031,0.26652452 5.17127072,0.159914712 C5.42173112,0.0533049041 5.69429098,0 5.98895028,0 C6.26887661,0 6.53775322,0.0533049041 6.79558011,0.159914712 C7.053407,0.26652452 7.27808471,0.408670931 7.46961326,0.586353945 C7.6611418,0.764036958 7.8121547,0.977256574 7.92265193,1.22601279 C8.03314917,1.47476901 8.08839779,1.74129353 8.08839779,2.02558635 Z" id="Shape"></path>
                <path d="M20,14.0085288 C20,14.2928216 19.9447514,14.5593461 19.8342541,14.8081023 C19.7237569,15.0568586 19.572744,15.2700782 19.3812155,15.4477612 C19.1896869,15.6254442 18.9650092,15.7675906 18.7071823,15.8742004 C18.4493554,15.9808102 18.1804788,16.0341151 17.9005525,16.0341151 C17.6058932,16.0341151 17.3333333,15.9808102 17.0828729,15.8742004 C16.8324125,15.7675906 16.611418,15.6254442 16.4198895,15.4477612 C16.228361,15.2700782 16.0773481,15.0568586 15.9668508,14.8081023 C15.8563536,14.5593461 15.801105,14.2928216 15.801105,14.0085288 C15.801105,13.724236 15.8563536,13.4577114 15.9668508,13.2089552 C16.0773481,12.960199 16.228361,12.7469794 16.4198895,12.5692964 C16.611418,12.3916134 16.8324125,12.249467 17.0828729,12.1428571 C17.3333333,12.0362473 17.6058932,11.9829424 17.9005525,11.9829424 C18.1804788,11.9829424 18.4493554,12.0362473 18.7071823,12.1428571 C18.9650092,12.249467 19.1896869,12.3916134 19.3812155,12.5692964 C19.572744,12.7469794 19.7237569,12.960199 19.8342541,13.2089552 C19.9447514,13.4577114 20,13.724236 20,14.0085288 Z" id="Path"></path>
            </g>
        </g>
    </g>
</svg>