<svg data-name="Layer 1" xmlns="http://www.w3.org/2000/svg" viewBox="0 0 200.53 42.1"><path d="M21.14 0v7.22h-4.63C2.85 7.22 0 17.44 0 24.8 0 30.19 1.65 34.87 4.59 38a13.26 13.26 0 009.85 4 14.15 14.15 0 006.7-1.45l.05.72h9V0zM8.62 24.56c0-3.49 1-9.4 7.53-9.87.88-.06 3.26-.24 5-.29v18.09A9.86 9.86 0 0116 34a7 7 0 01-5-1.71c-1.57-1.5-2.38-4.09-2.38-7.68M53.76 34c-4.85-.08-7.48-2.66-8.29-7.25h21.87v-.36c0-3.1 0-5.69-.1-6.83a14.72 14.72 0 00-4.07-9.41C60.58 7.62 57 6.32 52.47 6.32c-5.23 0-9.53 1.93-12.47 5.58a20.53 20.53 0 00-4 12.79C36 33.06 40.69 42 53.94 42a31.16 31.16 0 0012.85-3v-8.35a25.79 25.79 0 01-13 3.37m-1.31-20a5.73 5.73 0 015.92 5.38H45.65c.91-3.28 3.18-5.38 6.8-5.38M94.68 21.14v20.15h9.07v-21.5c0-9-4.17-13.38-12.72-13.38A24.08 24.08 0 0083.61 8v-.74h-9v34.03h9.07v-25.5a10.45 10.45 0 017.44-1.18c2.43.57 3.63 2.11 3.63 6.53M180.41 27.39V7.22h-9.07v21.52c0 9 4.14 13.36 12.71 13.36a23.16 23.16 0 007.41-1.55v.74h9V7.22h-9.07v25.52A10.49 10.49 0 01184 33.9c-2.45-.55-3.62-2.09-3.62-6.51M111.39 0v29.57c0 4.07.71 6.92 2.23 8.94 1.78 2.37 4.68 3.53 8.85 3.53a30.12 30.12 0 008.47-1.33v-8.17a35 35 0 01-6.82 1.07 3.91 3.91 0 01-2.83-.85c-.83-.83-.83-2.26-.83-3.64V14.71c3.58 0 8 .26 10.48.52v-8h-10.48V0zM163.64 24.77C161.82 22.26 159 21 153.91 20a24.69 24.69 0 01-6.09-1.64 1.73 1.73 0 01-1.06-1.54 1.71 1.71 0 011-1.47c1.33-.71 3.73-1.07 7.36-.43a50 50 0 018.59 2.52V9.22a25 25 0 00-12.13-2.83 16.72 16.72 0 00-9.76 3 10.48 10.48 0 00-4.23 8.15c-.26 5.63 3.3 9 11.47 10.62a37.23 37.23 0 015.23 1.27c1.07.43 1.68 1.13 1.69 1.93a2.07 2.07 0 01-1.38 1.83c-1.53.64-4 .53-5.61.38a37.72 37.72 0 01-10.77-2.87v8.47a26.42 26.42 0 0012.29 2.93c5.94-.1 13.3-1.86 14.65-9.68a10 10 0 00-1.52-7.6"/></svg>