<?xml version="1.0" encoding="UTF-8"?>
<svg width="225px" height="28px" viewBox="0 0 225 28" version="1.1" xmlns="http://www.w3.org/2000/svg" xmlns:xlink="http://www.w3.org/1999/xlink">
    <title>Stroke 27</title>
    <g id="Josiah" stroke="none" stroke-width="1" fill="none" fill-rule="evenodd">
        <g id="Homepage---V1" transform="translate(-787.000000, -729.000000)" stroke="#999999" stroke-width="0.5">
            <path d="M788,757 L810,729 M799,757 L821,729 M811,757 L833,729 M822,757 L844,729 M833,757 L855,729 M844,757 L866,729 M855,757 L877,729 M866,757 L888,729 M877,757 L899,729 M889,757 L911,729 M900,757 L922,729 M911,757 L933,729 M922,757 L944,729 M933,757 L955,729 M944,757 L966,729 M955,757 L977,729 M967,757 L989,729 M978,757 L1000,729 M989,757 L1011,729" id="Stroke-27"></path>
        </g>
    </g>
</svg>