<?xml version="1.0" encoding="UTF-8"?>
<svg width="125px" height="247px" viewBox="0 0 125 247" version="1.1" xmlns="http://www.w3.org/2000/svg" xmlns:xlink="http://www.w3.org/1999/xlink">
    <title>Stroke 19</title>
    <g id="Josiah" stroke="none" stroke-width="1" fill="none" fill-rule="evenodd">
        <g id="Homepage---V1" transform="translate(-166.000000, -599.000000)" stroke="#666666" stroke-width="2">
            <g id="Group" transform="translate(109.000000, 190.000000)">
                <path d="M57.786795,532.976 L123.786795,532.976 M180.786795,409.976 L180.786795,475.976 M180.786795,589.976 L180.786795,655.976 M93.786795,445.976 L140.786795,492.976 M140.786795,572.976 L93.786795,619.976 M66.786795,486.976 L127.786795,511.976 M159.786795,585.976 L134.786795,646.976 M132.786795,419.976 L158.786795,480.976 M128.786795,554.976 L67.786795,580.976 M59.786795,507.976 L124.786795,521.976 M168.786795,588.976 L154.786795,653.976 M113.786795,429.976 L149.786795,484.976 M132.786795,563.976 L77.786795,599.976 M78.786795,464.976 L133.786795,501.976 M148.786795,579.976 L111.786795,634.976 M156.786795,411.976 L169.786795,476.976 M124.786795,543.976 L59.786795,556.976" id="Stroke-19"></path>
            </g>
        </g>
    </g>
</svg>