<?xml version="1.0" encoding="UTF-8"?>
<svg width="43px" height="167px" viewBox="0 0 43 167" version="1.1" xmlns="http://www.w3.org/2000/svg" xmlns:xlink="http://www.w3.org/1999/xlink">
    <title>Dots</title>
    <g id="Josiah" stroke="none" stroke-width="1" fill="none" fill-rule="evenodd">
        <g id="Homepage---V1" transform="translate(-109.000000, -213.000000)" fill="#333333">
            <g id="Group" transform="translate(109.000000, 190.000000)">
                <g id="Dots" transform="translate(0.000000, 23.233792)">
                    <path d="M3.98903076,1.99357145 C3.98903076,3.09418903 3.09607688,3.98525506 1.99545931,3.98525506 C0.894841732,3.98525506 0,3.09418903 0,1.99357145 C0,0.891066029 0.894841732,0 1.99545931,0 C3.09607688,0 3.98903076,0.891066029 3.98903076,1.99357145" id="Fill-39"></path>
                    <path d="M3.98903076,18.2536386 C3.98903076,19.3542562 3.09607688,20.2472101 1.99545931,20.2472101 C0.894841732,20.2472101 0,19.3542562 0,18.2536386 C0,17.1530211 0.894841732,16.2600672 1.99545931,16.2600672 C3.09607688,16.2600672 3.98903076,17.1530211 3.98903076,18.2536386" id="Fill-40"></path>
                    <path d="M3.98903076,34.5155937 C3.98903076,35.6162112 3.09607688,36.5091651 1.99545931,36.5091651 C0.894841732,36.5091651 0,35.6162112 0,34.5155937 C0,33.4149761 0.894841732,32.5220222 1.99545931,32.5220222 C3.09607688,32.5220222 3.98903076,33.4149761 3.98903076,34.5155937" id="Fill-41"></path>
                    <path d="M3.98903076,50.7756608 C3.98903076,51.8781663 3.09607688,52.7711201 1.99545931,52.7711201 C0.894841732,52.7711201 0,51.8781663 0,50.7756608 C0,49.6750433 0.894841732,48.7839772 1.99545931,48.7839772 C3.09607688,48.7839772 3.98903076,49.6750433 3.98903076,50.7756608" id="Fill-42"></path>
                    <path d="M3.98903076,67.0376159 C3.98903076,68.1401213 3.09607688,69.0311873 1.99545931,69.0311873 C0.894841732,69.0311873 0,68.1401213 0,67.0376159 C0,65.9369983 0.894841732,65.0459323 1.99545931,65.0459323 C3.09607688,65.0459323 3.98903076,65.9369983 3.98903076,67.0376159" id="Fill-43"></path>
                    <path d="M3.98903076,83.2995709 C3.98903076,84.4020763 3.09607688,85.2931423 1.99545931,85.2931423 C0.894841732,85.2931423 0,84.4020763 0,83.2995709 C0,82.1989533 0.894841732,81.3059994 1.99545931,81.3059994 C3.09607688,81.3059994 3.98903076,82.1989533 3.98903076,83.2995709" id="Fill-44"></path>
                    <path d="M3.98903076,99.5615259 C3.98903076,100.662143 3.09607688,101.555097 1.99545931,101.555097 C0.894841732,101.555097 0,100.662143 0,99.5615259 C0,98.4609083 0.894841732,97.5679545 1.99545931,97.5679545 C3.09607688,97.5679545 3.98903076,98.4609083 3.98903076,99.5615259" id="Fill-45"></path>
                    <path d="M3.98903076,115.823481 C3.98903076,116.924099 3.09607688,117.817052 1.99545931,117.817052 C0.894841732,117.817052 0,116.924099 0,115.823481 C0,114.722863 0.894841732,113.828022 1.99545931,113.828022 C3.09607688,113.828022 3.98903076,114.722863 3.98903076,115.823481" id="Fill-46"></path>
                    <path d="M3.98903076,132.083548 C3.98903076,133.184166 3.09607688,134.079007 1.99545931,134.079007 C0.894841732,134.079007 0,133.184166 0,132.083548 C0,130.982931 0.894841732,130.089977 1.99545931,130.089977 C3.09607688,130.089977 3.98903076,130.982931 3.98903076,132.083548" id="Fill-47"></path>
                    <path d="M3.98903076,148.345503 C3.98903076,149.446121 3.09607688,150.339075 1.99545931,150.339075 C0.894841732,150.339075 0,149.446121 0,148.345503 C0,147.244886 0.894841732,146.351932 1.99545931,146.351932 C3.09607688,146.351932 3.98903076,147.244886 3.98903076,148.345503" id="Fill-48"></path>
                    <path d="M3.98903076,164.607458 C3.98903076,165.708076 3.09607688,166.60103 1.99545931,166.60103 C0.894841732,166.60103 0,165.708076 0,164.607458 C0,163.504953 0.894841732,162.613887 1.99545931,162.613887 C3.09607688,162.613887 3.98903076,163.504953 3.98903076,164.607458" id="Fill-49"></path>
                    <path d="M16.7641236,1.99357145 C16.7641236,3.09418903 15.8730576,3.98525506 14.77244,3.98525506 C13.6699346,3.98525506 12.7769807,3.09418903 12.7769807,1.99357145 C12.7769807,0.891066029 13.6699346,0 14.77244,0 C15.8730576,0 16.7641236,0.891066029 16.7641236,1.99357145" id="Fill-50"></path>
                    <path d="M16.7641236,18.2536386 C16.7641236,19.3542562 15.8730576,20.2472101 14.77244,20.2472101 C13.6699346,20.2472101 12.7769807,19.3542562 12.7769807,18.2536386 C12.7769807,17.1530211 13.6699346,16.2600672 14.77244,16.2600672 C15.8730576,16.2600672 16.7641236,17.1530211 16.7641236,18.2536386" id="Fill-51"></path>
                    <path d="M16.7641236,34.5155937 C16.7641236,35.6162112 15.8730576,36.5091651 14.77244,36.5091651 C13.6699346,36.5091651 12.7769807,35.6162112 12.7769807,34.5155937 C12.7769807,33.4149761 13.6699346,32.5220222 14.77244,32.5220222 C15.8730576,32.5220222 16.7641236,33.4149761 16.7641236,34.5155937" id="Fill-52"></path>
                    <path d="M16.7641236,50.7756608 C16.7641236,51.8781663 15.8730576,52.7711201 14.77244,52.7711201 C13.6699346,52.7711201 12.7769807,51.8781663 12.7769807,50.7756608 C12.7769807,49.6750433 13.6699346,48.7839772 14.77244,48.7839772 C15.8730576,48.7839772 16.7641236,49.6750433 16.7641236,50.7756608" id="Fill-53"></path>
                    <path d="M16.7641236,67.0376159 C16.7641236,68.1401213 15.8730576,69.0311873 14.77244,69.0311873 C13.6699346,69.0311873 12.7769807,68.1401213 12.7769807,67.0376159 C12.7769807,65.9369983 13.6699346,65.0459323 14.77244,65.0459323 C15.8730576,65.0459323 16.7641236,65.9369983 16.7641236,67.0376159" id="Fill-54"></path>
                    <path d="M16.7641236,83.2995709 C16.7641236,84.4020763 15.8730576,85.2931423 14.77244,85.2931423 C13.6699346,85.2931423 12.7769807,84.4020763 12.7769807,83.2995709 C12.7769807,82.1989533 13.6699346,81.3059994 14.77244,81.3059994 C15.8730576,81.3059994 16.7641236,82.1989533 16.7641236,83.2995709" id="Fill-55"></path>
                    <path d="M16.7641236,99.5615259 C16.7641236,100.662143 15.8730576,101.555097 14.77244,101.555097 C13.6699346,101.555097 12.7769807,100.662143 12.7769807,99.5615259 C12.7769807,98.4609083 13.6699346,97.5679545 14.77244,97.5679545 C15.8730576,97.5679545 16.7641236,98.4609083 16.7641236,99.5615259" id="Fill-56"></path>
                    <path d="M29.5411043,34.5155937 C29.5411043,35.6162112 28.6481504,36.5091651 27.545645,36.5091651 C26.4450274,36.5091651 25.5539614,35.6162112 25.5539614,34.5155937 C25.5539614,33.4149761 26.4450274,32.5220222 27.545645,32.5220222 C28.6481504,32.5220222 29.5411043,33.4149761 29.5411043,34.5155937" id="Fill-57"></path>
                    <path d="M29.5411043,50.7756608 C29.5411043,51.8781663 28.6481504,52.7711201 27.545645,52.7711201 C26.4450274,52.7711201 25.5539614,51.8781663 25.5539614,50.7756608 C25.5539614,49.6750433 26.4450274,48.7839772 27.545645,48.7839772 C28.6481504,48.7839772 29.5411043,49.6750433 29.5411043,50.7756608" id="Fill-58"></path>
                    <path d="M29.5411043,67.0376159 C29.5411043,68.1401213 28.6481504,69.0311873 27.545645,69.0311873 C26.4450274,69.0311873 25.5539614,68.1401213 25.5539614,67.0376159 C25.5539614,65.9369983 26.4450274,65.0459323 27.545645,65.0459323 C28.6481504,65.0459323 29.5411043,65.9369983 29.5411043,67.0376159" id="Fill-59"></path>
                    <path d="M29.5411043,83.2995709 C29.5411043,84.4020763 28.6481504,85.2931423 27.545645,85.2931423 C26.4450274,85.2931423 25.5539614,84.4020763 25.5539614,83.2995709 C25.5539614,82.1989533 26.4450274,81.3059994 27.545645,81.3059994 C28.6481504,81.3059994 29.5411043,82.1989533 29.5411043,83.2995709" id="Fill-60"></path>
                    <path d="M29.5411043,99.5615259 C29.5411043,100.662143 28.6481504,101.555097 27.545645,101.555097 C26.4450274,101.555097 25.5539614,100.662143 25.5539614,99.5615259 C25.5539614,98.4609083 26.4450274,97.5679545 27.545645,97.5679545 C28.6481504,97.5679545 29.5411043,98.4609083 29.5411043,99.5615259" id="Fill-61"></path>
                    <path d="M42.3161971,34.5155937 C42.3161971,35.6162112 41.4232432,36.5091651 40.3226257,36.5091651 C39.2220081,36.5091651 38.3290542,35.6162112 38.3290542,34.5155937 C38.3290542,33.4149761 39.2220081,32.5220222 40.3226257,32.5220222 C41.4232432,32.5220222 42.3161971,33.4149761 42.3161971,34.5155937" id="Fill-62"></path>
                    <path d="M42.3161971,50.7756608 C42.3161971,51.8781663 41.4232432,52.7711201 40.3226257,52.7711201 C39.2220081,52.7711201 38.3290542,51.8781663 38.3290542,50.7756608 C38.3290542,49.6750433 39.2220081,48.7839772 40.3226257,48.7839772 C41.4232432,48.7839772 42.3161971,49.6750433 42.3161971,50.7756608" id="Fill-63"></path>
                    <path d="M42.3161971,67.0376159 C42.3161971,68.1401213 41.4232432,69.0311873 40.3226257,69.0311873 C39.2220081,69.0311873 38.3290542,68.1401213 38.3290542,67.0376159 C38.3290542,65.9369983 39.2220081,65.0459323 40.3226257,65.0459323 C41.4232432,65.0459323 42.3161971,65.9369983 42.3161971,67.0376159" id="Fill-64"></path>
                    <path d="M42.3161971,83.2995709 C42.3161971,84.4020763 41.4232432,85.2931423 40.3226257,85.2931423 C39.2220081,85.2931423 38.3290542,84.4020763 38.3290542,83.2995709 C38.3290542,82.1989533 39.2220081,81.3059994 40.3226257,81.3059994 C41.4232432,81.3059994 42.3161971,82.1989533 42.3161971,83.2995709" id="Fill-65"></path>
                    <path d="M42.3161971,99.5615259 C42.3161971,100.662143 41.4232432,101.555097 40.3226257,101.555097 C39.2220081,101.555097 38.3290542,100.662143 38.3290542,99.5615259 C38.3290542,98.4609083 39.2220081,97.5679545 40.3226257,97.5679545 C41.4232432,97.5679545 42.3161971,98.4609083 42.3161971,99.5615259" id="Fill-66"></path>
                    <path d="M42.3161971,115.823481 C42.3161971,116.924099 41.4232432,117.817052 40.3226257,117.817052 C39.2220081,117.817052 38.3290542,116.924099 38.3290542,115.823481 C38.3290542,114.722863 39.2220081,113.828022 40.3226257,113.828022 C41.4232432,113.828022 42.3161971,114.722863 42.3161971,115.823481" id="Fill-67"></path>
                    <path d="M42.3161971,132.083548 C42.3161971,133.184166 41.4232432,134.079007 40.3226257,134.079007 C39.2220081,134.079007 38.3290542,133.184166 38.3290542,132.083548 C38.3290542,130.982931 39.2220081,130.089977 40.3226257,130.089977 C41.4232432,130.089977 42.3161971,130.982931 42.3161971,132.083548" id="Fill-68"></path>
                </g>
            </g>
        </g>
    </g>
</svg>