<?xml version="1.0" encoding="UTF-8"?>
<svg width="704px" height="700px" viewBox="0 0 704 700" version="1.1" xmlns="http://www.w3.org/2000/svg" xmlns:xlink="http://www.w3.org/1999/xlink">
    <title>Group</title>
    <defs>
        <path d="M561,280.500944 C561,435.417237 435.41535,561 280.500944,561 C125.58465,561 0,435.417237 0,280.500944 C0,125.58465 125.58465,0 280.500944,0 C435.41535,0 561,125.58465 561,280.500944" id="path-1"></path>
    </defs>
    <g id="Josiah" stroke="none" stroke-width="1" fill="none" fill-rule="evenodd">
        <g id="Homepage---V1" transform="translate(-109.000000, -190.000000)">
            <g id="Group" transform="translate(109.000000, 190.000000)">
                <path d="M287.107175,616.050978 C287.107175,661.880759 249.952816,699.033 204.123035,699.033 C158.293254,699.033 121.141012,661.880759 121.141012,616.050978 C121.141012,570.219078 158.293254,533.066837 204.123035,533.066837 C249.952816,533.066837 287.107175,570.219078 287.107175,616.050978" id="Fill-10" fill="#111111"></path>
                <path d="M703.219116,134.148858 C703.219116,208.235712 643.159,268.295828 569.072145,268.295828 C494.983403,268.295828 434.923288,208.235712 434.923288,134.148858 C434.923288,60.0601158 494.983403,0 569.072145,0 C643.159,0 703.219116,60.0601158 703.219116,134.148858" id="Fill-9" fill="#FFA500"></path>
                <g id="Group-15" transform="translate(45.786795, 13.976000)">
                    <mask id="mask-2" fill="white">
                        <use xlink:href="#path-1"></use>
                    </mask>
                    <g id="Clip-12"></g>
                    <path d="M-8.44151052,46.5359578 C50.6238859,41.733397 105.132437,20.2501432 164.633706,15.2004751 C206.713296,11.6277924 247.562632,1.89062881 289.919595,0.581525454 C403.689779,-2.93456772 518.188304,0.496641231 632,0.587184403 M-8.52830757,55.6317739 C49.955926,50.0030067 105.004128,31.8151471 163.748753,26.4466915 C206.679332,22.5250404 247.651316,11.016626 290.951725,9.65281948 C404.019985,6.08768209 518.829848,9.98292479 632,10.8430849 M-8.749074,62.912954 C48.674726,57.4747047 105.000354,44.4534648 162.367548,38.236167 C206.943497,33.4034252 248.43815,18.2959198 293.593375,16.8736374 C342.533706,15.3306309 390.545686,24.0454112 439.355822,24.5566028 C503.608286,25.2281313 567.75697,20.6538148 632,21.0970991 M-9.08305397,68.7001717 C47.040677,64.2333752 104.853177,57.8142416 160.575,50.4689268 C207.439749,44.293128 249.766522,23.9982533 297.565283,22.5684257 C346.637697,21.0989854 393.293001,35.6556866 441.988037,37.6457501 C505.395173,40.2375484 568.624941,31.3529996 632,31.3529996 M-9.50194411,73.3103282 C45.7651377,70.3544709 103.656887,70.5053762 158.463567,63.0544277 C208.268095,56.2863256 251.415666,28.3575297 302.580644,27.0616306 C352.019115,25.8091167 396.742241,47.2150316 445.348592,51.2894743 C507.508492,56.4994793 569.889159,42.3521087 632,41.6089002 M-9.98876238,77.0603246 C44.2009038,76.0360549 102.507769,85.1299847 156.11816,75.8964675 C208.845484,66.8176282 253.661068,31.5869028 308.362082,30.6795848 C358.411906,29.8477194 400.729245,58.7291049 449.241251,65.3368701 C509.695401,73.5725261 571.581702,53.5492809 632,51.8648007 M-10.5152054,80.2708345 C43.0819765,81.419601 100.409545,100.031882 153.623688,88.9007306 C209.096441,77.2961141 256.495181,33.9542295 314.620905,33.7448484 C365.506622,33.5618758 405.080419,70.2054519 453.467891,79.640805 C511.846458,91.0247225 573.617659,64.8445416 632,62.1207012 M-11.0567435,83.2606455 C42.564968,86.7352397 97.2263573,115.133728 151.066948,101.971015 C209.294565,87.7349872 259.533078,36.8402931 321.077851,36.5837541 C372.671153,36.3687141 409.965584,81.7553653 457.830386,94.0484872 C513.986194,108.469374 575.800793,76.1398023 632,72.3766017 M-11.5907341,86.3447723 C42.5932714,92.2074427 93.1280268,130.322345 148.538512,115.011118 C209.154935,98.260631 262.844574,39.435864 327.449887,39.5206565 C379.820589,39.590542 414.854522,93.3656407 462.136275,108.410898 C516.197632,125.612214 577.887696,87.3690419 632,82.6306159 M-12.0945344,89.8438886 C42.9725368,98.0116372 88.5051401,145.410988 146.12329,127.92861 C208.832276,108.903226 266.140975,42.3728582 333.452092,42.8821635 C386.636045,43.2820625 419.496278,105.049483 466.181773,122.577132 C518.51851,142.225 579.680244,98.4681257 632,92.8865165 M-12.5455017,94.0748956 C43.5272832,104.25723 83.7992302,160.148775 143.908078,140.62729 C208.439802,119.670318 269.135474,46.0455156 338.805206,46.9886736 C392.889206,47.7205643 423.541775,116.765392 469.776303,136.400056 C520.884673,158.102122 581.052015,109.393668 632,103.142417 M-12.9153327,99.3584669 C44.1876956,111.023446 79.3971099,174.256533 141.979674,153.012841 C173.766265,142.223114 204.498084,120.556887 232.867513,103.321617 C263.116287,84.9413531 305.463815,51.4743333 343.224309,52.1684976 C398.37629,53.1814493 426.621184,128.436029 472.721742,149.726879 C523.165927,173.022882 581.950176,120.090967 632,113.398317 M-13.1851583,106.007731 C44.9820773,118.381965 75.5837002,187.460746 140.426761,164.989062 C173.088871,153.669279 204.788665,130.584543 233.767561,112.511749 C264.303142,93.4675018 307.86583,57.9217616 346.426365,58.7441954 C402.891624,59.9495514 428.381655,139.974625 474.819966,162.408582 C525.190562,186.743946 582.331328,130.499659 632,123.654218 M-13.3266752,114.347134 C45.9953386,126.410126 72.5608983,199.484124 139.332364,176.461637 C172.534125,165.015471 205.018866,140.73481 234.271361,122.171574 C265.131488,102.58784 308.882865,66.1819397 348.132116,67.0439862 C406.238971,68.3191358 428.468452,151.317043 475.874739,174.298032 C526.794421,198.980478 582.135091,140.55561 632,133.910119 M-13.5210252,124.465334 C45.5821091,136.562279 72.5231605,209.455191 138.913474,186.285571 C172.252978,174.650773 204.85282,150.747376 234.443068,132.284114 C265.412635,112.95692 309.450819,76.6924929 348.537798,77.2093435 C406.850324,77.9808468 428.385429,161.955866 475.767186,184.848198 C527.258596,209.728707 581.691672,150.556858 632,144.166019 M-14.7286364,135.336173 C43.4348254,147.708521 74.1232453,216.293087 138.688933,193.615795 C172.16052,181.858387 204.684886,159.745104 235.01291,141.964688 C266.195695,123.682513 311.439604,88.1952484 349.8907,88.485741 C406.876741,88.9139348 429.098674,172.372103 475.119982,195.105985 C526.590636,220.533526 581.576571,160.801441 632,154.420033 M-16.9174317,146.708773 C40.8705385,158.447318 75.3384041,220.646704 138.398352,199.350196 C172.1058,187.966278 204.849046,167.854376 235.995981,151.156706 C267.739173,134.138363 314.241639,100.214854 352.273845,100.690206 C407.946609,101.386257 429.421332,183.097697 474.131251,205.695763 C525.379251,231.598656 581.610535,171.081863 632,164.675934 M-19.9043826,158.485044 C37.8137726,168.848465 76.3384572,223.036667 138.043616,203.81322 C172.073723,193.210237 205.245293,175.278916 237.265859,160.014847 C269.843059,144.486693 317.585213,112.79281 355.392878,113.769922 C409.784442,115.175227 429.387368,194.111896 472.850051,216.570375 C523.733881,242.861849 581.755826,181.390581 632,174.931834 M-23.4970259,170.572558 C34.2154686,178.981755 77.2215229,223.989257 137.622839,207.32554 C172.045419,197.827939 205.777397,182.229991 238.696124,168.69756 C272.311114,154.876522 321.202386,125.951751 358.960992,127.666412 C412.243063,130.088442 428.842056,205.556176 471.334876,227.68455 C522.043225,254.091089 581.746392,191.748342 632,185.187735 M-27.5104463,182.873225 C30.1624235,188.952822 77.955524,224.04396 137.134134,210.209718 C172.000134,202.058946 206.356673,188.922641 240.156579,177.359523 C274.960311,165.453096 324.813898,139.716199 362.691379,142.324975 C416.231954,146.014609 426.22871,218.886772 469.631012,238.989242 C522.886666,263.656597 579.517972,202.424891 632,195.443635 M-31.7540676,195.29273 C22.6431568,198.580579 73.989276,223.031008 128.863884,214.24832 C174.496493,206.944504 219.221506,192.025631 263.767265,180.092795 C293.72357,172.06652 333.495491,155.531073 365.114149,159.182981 C419.93215,165.519117 425.077706,234.328155 472.312286,252.749918 C523.69803,272.792026 581.440715,212.3488 632,205.699536 M-36.0429743,207.734871 C18.935413,208.738391 73.111871,223.170595 128.120448,216.485491 C174.226667,210.881246 219.798895,199.719914 265.295648,190.665597 C296.246346,184.508661 336.212616,170.774394 368.116195,175.012946 C420.907673,182.026269 424.775803,246.255332 470.244252,264.19797 C521.428099,284.39287 581.51053,222.729197 632,215.955436 M-40.1865902,220.103445 C15.635238,218.94902 71.6136783,223.662924 127.335501,219.047108 C173.868158,215.191478 220.151744,207.802778 266.420236,201.709977 C298.357778,197.505379 338.148568,186.660948 370.457828,191.406919 C421.200142,198.86164 424.411633,258.414525 468.172444,275.676203 C519.348743,295.863558 581.450149,233.115254 632,226.211337 M-44,232.302252 C12.8690536,229.252078 69.6211198,224.849417 126.51659,222.270823 C173.383226,220.146831 220.181934,216.481719 266.990077,213.348548 C299.846536,211.149103 339.05805,203.202053 371.86545,208.325288 C420.613318,215.936573 423.968213,270.790645 466.162904,287.141233 C517.663748,307.094684 581.14636,243.518287 632,236.467237" id="Stroke-11" stroke="#333333" stroke-width="0.75" mask="url(#mask-2)"></path>
                    <path d="M-47.1164538,244.9066 C10.9155658,240.385613 67.7177253,227.763426 126.059571,227.173322 C173.172095,226.696337 220.292176,226.641663 267.406589,226.38526 C301.075664,226.202384 339.382691,221.098835 372.758943,226.404113 C419.67688,233.860536 424.175032,284.032554 465.083469,299.188606 C517.459265,318.592273 581.408216,254.612204 633,247.393331 M-49.7046388,256.473011 C9.30975758,251.081008 65.5659422,231.430364 125.205659,232.725576 C205.057779,234.460066 292.619667,231.99973 371.496966,244.227886 C416.693855,251.233719 423.523263,296.820649 463.402093,310.481646 C517.225006,328.921917 580.233142,265.071935 633,257.641907 M-51.3935713,267.583176 C5.83554428,262.451347 59.4752062,237.797075 117.378761,239.569272 C200.136449,242.103136 287.617102,251.163962 369.634229,262.196829 C413.761838,268.131802 425.334993,313.153138 466.247208,322.641931 C521.968753,335.565769 578.604664,275.337478 633,267.892367 M-52,278.142828 C5.70330125,273.94046 58.3001324,245.694662 116.726992,248.667804 C199.15785,252.860746 282.176246,271.627177 364.217932,280.912357 C407.655989,285.827374 424.488637,325.820573 465.355512,333.395771 C523.442318,344.164694 576.596459,285.802865 633,278.142828 M-51.3274497,288.404601 C5.95078463,283.312363 60.234659,257.589118 118.179776,260.520783 C198.430514,264.579868 280.443862,279.852809 360.167517,289.963757 C403.535674,295.465107 424.866475,334.772052 466.207535,342.126668 C523.536777,352.324339 577.361579,296.630232 633,288.393289 M-49.4533771,298.690882 C10.1447778,293.289453 68.0086599,271.383972 128.218911,275.060337 C202.913552,279.61903 279.890331,288.085982 354.012549,298.22898 C397.18423,304.137559 422.573003,338.940484 463.555117,347.827862 C521.558799,360.406687 576.842053,307.161605 633,298.643749 M-46.5855925,308.994132 C13.2789376,304.339288 72.7316253,288.564852 132.949433,290.834772 C203.829808,293.506265 277.611972,296.952621 347.984156,305.674091 C392.540611,311.194295 423.315453,344.498394 466.201867,352.780586 C523.801263,363.903948 577.036639,316.835159 633,308.89421 M-42.9300174,319.312464 C84.593825,312.300975 213.632795,299.808874 341.379561,312.728942 C387.966891,317.442231 424.193924,348.804455 469.502275,356.436213 C526.317659,366.00796 577.52216,326.027958 633,319.142786 M-38.7001296,329.642108 C22.741871,328.082952 84.208431,328.644776 145.627761,326.274934 C207.568507,323.886239 272.58107,315.338219 334.41791,319.691412 C383.368612,323.135884 425.48046,350.708624 473.291983,359.162379 C527.910243,368.818965 579.269657,334.758854 633,329.393246 M-34.0980722,339.979293 C28.0977137,340.478902 90.8848148,350.763298 152.96725,345.233668 C210.258708,340.132004 269.769961,324.917507 327.312681,326.851841 C378.808117,328.580675 426.82745,353.321671 477.399073,361.321065 C530.369963,369.701293 580.552415,343.361549 633,339.643707 M-29.3373231,350.318364 C33.0568273,352.972888 98.3584351,373.583158 160.569335,364.544955 C213.441987,356.860409 266.68492,334.877629 320.277352,334.502451 C374.353416,334.121618 428.255674,356.136447 481.662966,363.279908 C532.825905,370.125489 582.044872,351.885061 633,349.894168 M-24.6256929,360.657434 C38.9605339,365.559255 110.352878,397.660523 173.495146,382.596851 C219.094432,371.720466 265.751662,342.909073 312.873631,341.625174 C367.221738,340.145201 425.588144,358.15562 479.633981,364.659959 C531.187981,370.864533 581.446,360.527347 633,360.144628 M-20.170992,370.990849 C43.6740533,377.810035 116.868681,418.225545 180.351003,401.295411 C223.324319,389.836463 261.104264,354.021123 306.361607,351.083802 C363.052304,347.405551 426.625307,362.495617 483.438801,367.489818 C533.25664,371.869406 583.0707,369.209226 633,370.395089 M-16.1810309,381.316722 C46.0770981,389.457515 124.882608,439.67478 186.609876,419.364275 C226.824981,406.133131 257.006619,366.30961 300.648708,361.999779 C359.523305,356.18358 427.526449,367.930982 486.943242,371.23971 C535.661574,373.950794 584.274111,378.19464 633,380.643664 M-12.8673984,391.627513 C47.862379,400.550711 131.86504,459.223617 191.982722,436.475399 C230.261411,421.988635 253.111117,380.004542 295.982418,374.684182 C357.042803,367.105213 428.074313,374.823695 489.990499,376.269732 C538.436788,377.400922 584.872983,387.577855 633,390.89601 M-10.4341267,401.923221 C30.0246835,408.127795 64.5193331,422.919981 102.401293,437.729134 C131.196269,448.982583 165.358421,464.726853 196.186161,452.295082 C233.372901,437.303053 249.869274,395.25486 292.606443,389.449973 C356.043424,380.834081 428.053532,383.567789 492.436995,382.945635 C541.308351,382.474306 584.918324,397.466335 633,401.144586 M-9.09469373,412.200076 C32.1273477,418.299072 66.2895005,434.152691 104.485066,449.9818 C132.394013,461.544441 168.301773,478.48023 198.938705,466.49905 C235.860959,452.059418 247.802504,412.175567 290.768264,406.612001 C356.729198,398.069636 427.456549,394.574261 494.125927,391.631284 C543.766182,389.438662 584.610386,408.001479 633,411.395047 M-9.04746408,422.450537 C32.3105987,428.428873 66.3745139,444.45217 104.626755,460.424563 C132.350561,472.000401 168.719283,488.926764 199.420447,477.727989 C236.327588,464.268722 247.715602,426.901767 290.414987,421.645507 C357.360186,413.402908 426.663091,406.268874 494.086254,401.796905 C544.272484,398.465552 584.217436,418.459324 633,421.645507 M-10.3037729,432.676489 C30.5819934,438.760402 64.9349541,454.101215 103.017168,469.408092 C131.067804,480.684164 166.822541,496.963864 197.597383,486.102561 C234.240037,473.169296 247.944193,437.508552 289.695207,431.895968 C355.614578,423.034985 423.540266,415.501264 489.930045,410.071555 C541.502937,405.850334 582.83833,427.522036 633,431.895968 M-12.6671447,442.881702 C49.2301498,451.857689 132.031289,513.707351 194.366874,493.161182 C230.882953,481.123443 247.62681,448.100255 288.346328,442.144543 C352.608883,432.750016 417.899156,423.730666 482.520657,416.721063 C536.286894,410.887897 580.686547,435.962594 633,442.144543 M-15.92788,453.071832 C46.8327726,461.516161 126.777462,517.954967 189.997187,499.15083 C226.449033,488.30838 246.876803,458.701385 286.481701,452.396889 C348.522574,442.519721 410.540776,431.324717 472.727116,422.343074 C528.688588,414.262612 578.495091,444.110928 633,452.396889 M-19.8781682,463.248766 C43.9460961,470.837161 120.456245,520.98467 184.750917,504.320365 C220.913718,494.946576 246.393171,470.198039 284.224124,462.645465 C343.23852,450.862243 402.26803,438.626545 461.424115,427.539004 C518.989506,416.749343 576.777821,452.323362 633,462.645465 M-24.3083097,473.414387 C40.5587854,479.871593 113.575829,523.128273 178.890662,508.91865 C215.030792,501.054999 244.793031,480.376858 281.692614,472.895926 C337.962023,461.491652 393.577774,446.011326 449.478791,432.900841 C507.801746,419.220991 575.719876,460.875153 633,472.895926 M-29.0086048,483.578123 C35.6903527,488.481829 102.799912,522.74744 167.923936,513.888342 C205.724661,508.745201 240.531027,489.232185 278.441325,482.120775 C334.279999,471.649732 387.555048,448.526337 443.255812,437.484043 C501.627885,425.910091 575.738768,470.100003 633,483.146386 M-33.771243,493.738089 C31.0675143,497.216496 96.3974599,524.730792 161.540376,517.921032 C199.513017,513.950557 237.827601,499.337476 275.473413,492.152539 C328.926046,481.951096 379.338978,456.991403 432.372211,444.840545 C464.427921,437.497241 495.457804,451.720061 526.002165,461.806499 C561.533978,473.540703 596.567045,484.696116 633,493.396847" id="Stroke-13" stroke="#333333" stroke-width="0.75" mask="url(#mask-2)"></path>
                    <path d="M-38.3958956,504.024957 C26.2750808,506.116802 90.4813149,527.161509 155.346879,522.250387 C193.76558,519.342534 234.808375,509.47506 272.654649,502.377865 C323.86699,492.776111 372.149186,461.997731 423.531554,454.374749 C488.50858,444.737189 569.073367,488.392661 633,503.768659 M-42.6598122,514.192075 C21.6182113,515.062734 85.2293485,530.161704 149.613167,526.899558 C188.77999,524.915132 231.592962,519.29919 270.13635,512.57702 C320.324746,503.825195 367.388411,473.955166 417.633482,466.416988 C483.825262,456.487323 567.682918,498.865075 633,514.016812 M-46.3588591,524.36673 C59.0148571,524.270618 162.89233,538.564888 268.065791,522.906208 C318.1295,515.452835 365.53133,488.486888 415.579925,481.732681 C483.060137,472.624678 566.247129,510.189302 633,524.261195 M-49.2890029,534.558346 C55.4707243,533.519962 162.896108,546.528973 267.412129,534.507464 C319.652192,528.499536 370.58682,504.205873 423.008246,499.820539 C489.887693,494.223442 567.0916,523.117277 633,534.507464 M-51.2386538,544.766924 C54.255971,543.690849 160.908673,551.185682 266.299392,544.753732 C321.56217,541.382282 376.3961,526.328541 431.715553,523.984167 C497.8431,521.18185 567.291855,537.45866 633,544.753732 M-52,555 C176.332074,554.766316 404.686818,552.896848 633,555" id="Stroke-14" stroke="#333333" stroke-width="0.75" mask="url(#mask-2)"></path>
                </g>
                <g id="Dots" transform="translate(0.000000, 23.233792)" fill="#333333">
                    <path d="M3.98903076,1.99357145 C3.98903076,3.09418903 3.09607688,3.98525506 1.99545931,3.98525506 C0.894841732,3.98525506 0,3.09418903 0,1.99357145 C0,0.891066029 0.894841732,0 1.99545931,0 C3.09607688,0 3.98903076,0.891066029 3.98903076,1.99357145" id="Fill-39"></path>
                    <path d="M3.98903076,18.2536386 C3.98903076,19.3542562 3.09607688,20.2472101 1.99545931,20.2472101 C0.894841732,20.2472101 0,19.3542562 0,18.2536386 C0,17.1530211 0.894841732,16.2600672 1.99545931,16.2600672 C3.09607688,16.2600672 3.98903076,17.1530211 3.98903076,18.2536386" id="Fill-40"></path>
                    <path d="M3.98903076,34.5155937 C3.98903076,35.6162112 3.09607688,36.5091651 1.99545931,36.5091651 C0.894841732,36.5091651 0,35.6162112 0,34.5155937 C0,33.4149761 0.894841732,32.5220222 1.99545931,32.5220222 C3.09607688,32.5220222 3.98903076,33.4149761 3.98903076,34.5155937" id="Fill-41"></path>
                    <path d="M3.98903076,50.7756608 C3.98903076,51.8781663 3.09607688,52.7711201 1.99545931,52.7711201 C0.894841732,52.7711201 0,51.8781663 0,50.7756608 C0,49.6750433 0.894841732,48.7839772 1.99545931,48.7839772 C3.09607688,48.7839772 3.98903076,49.6750433 3.98903076,50.7756608" id="Fill-42"></path>
                    <path d="M3.98903076,67.0376159 C3.98903076,68.1401213 3.09607688,69.0311873 1.99545931,69.0311873 C0.894841732,69.0311873 0,68.1401213 0,67.0376159 C0,65.9369983 0.894841732,65.0459323 1.99545931,65.0459323 C3.09607688,65.0459323 3.98903076,65.9369983 3.98903076,67.0376159" id="Fill-43"></path>
                    <path d="M3.98903076,83.2995709 C3.98903076,84.4020763 3.09607688,85.2931423 1.99545931,85.2931423 C0.894841732,85.2931423 0,84.4020763 0,83.2995709 C0,82.1989533 0.894841732,81.3059994 1.99545931,81.3059994 C3.09607688,81.3059994 3.98903076,82.1989533 3.98903076,83.2995709" id="Fill-44"></path>
                    <path d="M3.98903076,99.5615259 C3.98903076,100.662143 3.09607688,101.555097 1.99545931,101.555097 C0.894841732,101.555097 0,100.662143 0,99.5615259 C0,98.4609083 0.894841732,97.5679545 1.99545931,97.5679545 C3.09607688,97.5679545 3.98903076,98.4609083 3.98903076,99.5615259" id="Fill-45"></path>
                    <path d="M3.98903076,115.823481 C3.98903076,116.924099 3.09607688,117.817052 1.99545931,117.817052 C0.894841732,117.817052 0,116.924099 0,115.823481 C0,114.722863 0.894841732,113.828022 1.99545931,113.828022 C3.09607688,113.828022 3.98903076,114.722863 3.98903076,115.823481" id="Fill-46"></path>
                    <path d="M3.98903076,132.083548 C3.98903076,133.184166 3.09607688,134.079007 1.99545931,134.079007 C0.894841732,134.079007 0,133.184166 0,132.083548 C0,130.982931 0.894841732,130.089977 1.99545931,130.089977 C3.09607688,130.089977 3.98903076,130.982931 3.98903076,132.083548" id="Fill-47"></path>
                    <path d="M3.98903076,148.345503 C3.98903076,149.446121 3.09607688,150.339075 1.99545931,150.339075 C0.894841732,150.339075 0,149.446121 0,148.345503 C0,147.244886 0.894841732,146.351932 1.99545931,146.351932 C3.09607688,146.351932 3.98903076,147.244886 3.98903076,148.345503" id="Fill-48"></path>
                    <path d="M3.98903076,164.607458 C3.98903076,165.708076 3.09607688,166.60103 1.99545931,166.60103 C0.894841732,166.60103 0,165.708076 0,164.607458 C0,163.504953 0.894841732,162.613887 1.99545931,162.613887 C3.09607688,162.613887 3.98903076,163.504953 3.98903076,164.607458" id="Fill-49"></path>
                    <path d="M16.7641236,1.99357145 C16.7641236,3.09418903 15.8730576,3.98525506 14.77244,3.98525506 C13.6699346,3.98525506 12.7769807,3.09418903 12.7769807,1.99357145 C12.7769807,0.891066029 13.6699346,0 14.77244,0 C15.8730576,0 16.7641236,0.891066029 16.7641236,1.99357145" id="Fill-50"></path>
                    <path d="M16.7641236,18.2536386 C16.7641236,19.3542562 15.8730576,20.2472101 14.77244,20.2472101 C13.6699346,20.2472101 12.7769807,19.3542562 12.7769807,18.2536386 C12.7769807,17.1530211 13.6699346,16.2600672 14.77244,16.2600672 C15.8730576,16.2600672 16.7641236,17.1530211 16.7641236,18.2536386" id="Fill-51"></path>
                    <path d="M16.7641236,34.5155937 C16.7641236,35.6162112 15.8730576,36.5091651 14.77244,36.5091651 C13.6699346,36.5091651 12.7769807,35.6162112 12.7769807,34.5155937 C12.7769807,33.4149761 13.6699346,32.5220222 14.77244,32.5220222 C15.8730576,32.5220222 16.7641236,33.4149761 16.7641236,34.5155937" id="Fill-52"></path>
                    <path d="M16.7641236,50.7756608 C16.7641236,51.8781663 15.8730576,52.7711201 14.77244,52.7711201 C13.6699346,52.7711201 12.7769807,51.8781663 12.7769807,50.7756608 C12.7769807,49.6750433 13.6699346,48.7839772 14.77244,48.7839772 C15.8730576,48.7839772 16.7641236,49.6750433 16.7641236,50.7756608" id="Fill-53"></path>
                    <path d="M16.7641236,67.0376159 C16.7641236,68.1401213 15.8730576,69.0311873 14.77244,69.0311873 C13.6699346,69.0311873 12.7769807,68.1401213 12.7769807,67.0376159 C12.7769807,65.9369983 13.6699346,65.0459323 14.77244,65.0459323 C15.8730576,65.0459323 16.7641236,65.9369983 16.7641236,67.0376159" id="Fill-54"></path>
                    <path d="M16.7641236,83.2995709 C16.7641236,84.4020763 15.8730576,85.2931423 14.77244,85.2931423 C13.6699346,85.2931423 12.7769807,84.4020763 12.7769807,83.2995709 C12.7769807,82.1989533 13.6699346,81.3059994 14.77244,81.3059994 C15.8730576,81.3059994 16.7641236,82.1989533 16.7641236,83.2995709" id="Fill-55"></path>
                    <path d="M16.7641236,99.5615259 C16.7641236,100.662143 15.8730576,101.555097 14.77244,101.555097 C13.6699346,101.555097 12.7769807,100.662143 12.7769807,99.5615259 C12.7769807,98.4609083 13.6699346,97.5679545 14.77244,97.5679545 C15.8730576,97.5679545 16.7641236,98.4609083 16.7641236,99.5615259" id="Fill-56"></path>
                    <path d="M29.5411043,34.5155937 C29.5411043,35.6162112 28.6481504,36.5091651 27.545645,36.5091651 C26.4450274,36.5091651 25.5539614,35.6162112 25.5539614,34.5155937 C25.5539614,33.4149761 26.4450274,32.5220222 27.545645,32.5220222 C28.6481504,32.5220222 29.5411043,33.4149761 29.5411043,34.5155937" id="Fill-57"></path>
                    <path d="M29.5411043,50.7756608 C29.5411043,51.8781663 28.6481504,52.7711201 27.545645,52.7711201 C26.4450274,52.7711201 25.5539614,51.8781663 25.5539614,50.7756608 C25.5539614,49.6750433 26.4450274,48.7839772 27.545645,48.7839772 C28.6481504,48.7839772 29.5411043,49.6750433 29.5411043,50.7756608" id="Fill-58"></path>
                    <path d="M29.5411043,67.0376159 C29.5411043,68.1401213 28.6481504,69.0311873 27.545645,69.0311873 C26.4450274,69.0311873 25.5539614,68.1401213 25.5539614,67.0376159 C25.5539614,65.9369983 26.4450274,65.0459323 27.545645,65.0459323 C28.6481504,65.0459323 29.5411043,65.9369983 29.5411043,67.0376159" id="Fill-59"></path>
                    <path d="M29.5411043,83.2995709 C29.5411043,84.4020763 28.6481504,85.2931423 27.545645,85.2931423 C26.4450274,85.2931423 25.5539614,84.4020763 25.5539614,83.2995709 C25.5539614,82.1989533 26.4450274,81.3059994 27.545645,81.3059994 C28.6481504,81.3059994 29.5411043,82.1989533 29.5411043,83.2995709" id="Fill-60"></path>
                    <path d="M29.5411043,99.5615259 C29.5411043,100.662143 28.6481504,101.555097 27.545645,101.555097 C26.4450274,101.555097 25.5539614,100.662143 25.5539614,99.5615259 C25.5539614,98.4609083 26.4450274,97.5679545 27.545645,97.5679545 C28.6481504,97.5679545 29.5411043,98.4609083 29.5411043,99.5615259" id="Fill-61"></path>
                    <path d="M42.3161971,34.5155937 C42.3161971,35.6162112 41.4232432,36.5091651 40.3226257,36.5091651 C39.2220081,36.5091651 38.3290542,35.6162112 38.3290542,34.5155937 C38.3290542,33.4149761 39.2220081,32.5220222 40.3226257,32.5220222 C41.4232432,32.5220222 42.3161971,33.4149761 42.3161971,34.5155937" id="Fill-62"></path>
                    <path d="M42.3161971,50.7756608 C42.3161971,51.8781663 41.4232432,52.7711201 40.3226257,52.7711201 C39.2220081,52.7711201 38.3290542,51.8781663 38.3290542,50.7756608 C38.3290542,49.6750433 39.2220081,48.7839772 40.3226257,48.7839772 C41.4232432,48.7839772 42.3161971,49.6750433 42.3161971,50.7756608" id="Fill-63"></path>
                    <path d="M42.3161971,67.0376159 C42.3161971,68.1401213 41.4232432,69.0311873 40.3226257,69.0311873 C39.2220081,69.0311873 38.3290542,68.1401213 38.3290542,67.0376159 C38.3290542,65.9369983 39.2220081,65.0459323 40.3226257,65.0459323 C41.4232432,65.0459323 42.3161971,65.9369983 42.3161971,67.0376159" id="Fill-64"></path>
                    <path d="M42.3161971,83.2995709 C42.3161971,84.4020763 41.4232432,85.2931423 40.3226257,85.2931423 C39.2220081,85.2931423 38.3290542,84.4020763 38.3290542,83.2995709 C38.3290542,82.1989533 39.2220081,81.3059994 40.3226257,81.3059994 C41.4232432,81.3059994 42.3161971,82.1989533 42.3161971,83.2995709" id="Fill-65"></path>
                    <path d="M42.3161971,99.5615259 C42.3161971,100.662143 41.4232432,101.555097 40.3226257,101.555097 C39.2220081,101.555097 38.3290542,100.662143 38.3290542,99.5615259 C38.3290542,98.4609083 39.2220081,97.5679545 40.3226257,97.5679545 C41.4232432,97.5679545 42.3161971,98.4609083 42.3161971,99.5615259" id="Fill-66"></path>
                    <path d="M42.3161971,115.823481 C42.3161971,116.924099 41.4232432,117.817052 40.3226257,117.817052 C39.2220081,117.817052 38.3290542,116.924099 38.3290542,115.823481 C38.3290542,114.722863 39.2220081,113.828022 40.3226257,113.828022 C41.4232432,113.828022 42.3161971,114.722863 42.3161971,115.823481" id="Fill-67"></path>
                    <path d="M42.3161971,132.083548 C42.3161971,133.184166 41.4232432,134.079007 40.3226257,134.079007 C39.2220081,134.079007 38.3290542,133.184166 38.3290542,132.083548 C38.3290542,130.982931 39.2220081,130.089977 40.3226257,130.089977 C41.4232432,130.089977 42.3161971,130.982931 42.3161971,132.083548" id="Fill-68"></path>
                </g>
                <path d="M57.786795,532.976 L123.786795,532.976 M180.786795,409.976 L180.786795,475.976 M180.786795,589.976 L180.786795,655.976 M93.786795,445.976 L140.786795,492.976 M140.786795,572.976 L93.786795,619.976 M66.786795,486.976 L127.786795,511.976 M159.786795,585.976 L134.786795,646.976 M132.786795,419.976 L158.786795,480.976 M128.786795,554.976 L67.786795,580.976 M59.786795,507.976 L124.786795,521.976 M168.786795,588.976 L154.786795,653.976 M113.786795,429.976 L149.786795,484.976 M132.786795,563.976 L77.786795,599.976 M78.786795,464.976 L133.786795,501.976 M148.786795,579.976 L111.786795,634.976 M156.786795,411.976 L169.786795,476.976 M124.786795,543.976 L59.786795,556.976" id="Stroke-19" stroke="#666666" stroke-width="2"></path>
            </g>
        </g>
    </g>
</svg>